<svg width="46" height="46" fill="none" stroke="#763cad" stroke-linecap="round" stroke-linejoin="round" stroke-width="1.5" viewBox="0 0 24 24" xmlns="http://www.w3.org/2000/svg">
  <path d="M2.5 8.5h19l-2.1 13H4.6l-2.1-13Z"></path>
  <path d="M17.5 8.5c0-3.314-2.463-6-5.5-6-3.038 0-5.5 2.686-5.5 6"></path>
  <path fill="#763cad" stroke="none" d="M8.5 14a1 1 0 1 0 0-2 1 1 0 0 0 0 2Z"></path>
  <path d="M9 16.5s1 1.5 3 1.5 3-1.5 3-1.5"></path>
  <path fill="#763cad" stroke="none" d="M15.5 14a1 1 0 1 0 0-2 1 1 0 0 0 0 2Z"></path>
</svg>